<?xml version="1.0" encoding="UTF-8"?>
<svg width="110px" height="107px" viewBox="0 0 110 107" version="1.1" xmlns="http://www.w3.org/2000/svg" xmlns:xlink="http://www.w3.org/1999/xlink">
    <!-- Generator: Sketch 54.1 (76490) - https://sketchapp.com -->
    <title>Logo</title>
    <desc>Created with Sketch.</desc>
    <g id="Page-1" stroke="none" stroke-width="1" fill="none" fill-rule="evenodd">
        <g id="Logo" transform="translate(-6.025428, -9.389272)">
            <g id="shopify_monotone_black" transform="translate(60.500000, 64.500000) rotate(175.000000) translate(-60.500000, -64.500000) translate(5.000000, 5.000000)" fill="#000000" fill-rule="nonzero">
                <g id="Group" transform="translate(0.669666, 0.854594)">
                    <path d="M102.586772,45.200264 C102.586772,45.200264 100.660847,45.4652657 97.4968254,45.9290187 C91.8566138,46.6577734 91.8566138,46.6577734 78.1,48.6452862 C77.3424923,48.7547286 74.7905102,49.1767265 73.9730159,49.3077905 C65.8400425,50.6117018 56.5269739,51.8875668 47.8354497,53.2828161 C35.4544974,55.270329 47.8354497,53.2828161 34.9042328,55.270329 C25.4121693,56.6615879 17.4333333,57.6553443 17.2957672,57.7215948 C15.8982591,57.933117 14.8610731,58.0965658 14.1842092,58.2119411 C13.7143863,59.0496138 13.3759109,59.8799214 13.1687831,60.702864 C12.8970887,61.7932406 8.64561929,77.5059085 0.414374868,107.840868 L0.414395413,107.840873 C0.26976856,108.373873 0.584606846,108.923197 1.11760641,109.067824 C1.17610097,109.083696 1.23591746,109.094218 1.29631726,109.099258 L103.016839,117.587841 C103.567211,117.63377 104.050608,117.224838 104.096536,116.674466 C104.098844,116.646806 104.1,116.619062 104.1,116.591305 L104.1,45.1340136 C103.091182,45.1781806 102.586772,45.200264 102.586772,45.200264 Z" id="Shape"></path>
                    <path d="M32.01365,80.5235299 L82.7679193,71.7749695 L71.5627239,-18.8483233 C60.3372819,-18.5367595 54.724561,-18.3809775 54.724561,-18.3809775 C51.4319741,-20.361238 48.1393872,-22.3414985 44.8468003,-24.321759 L44.8468003,-24.321759 C44.3735188,-24.6064046 43.7590976,-24.4534851 43.4744519,-23.9802037 C43.401887,-23.8595497 43.355618,-23.7249324 43.3386728,-23.5851615 L30.8510531,79.4177084 C30.7845832,79.9659785 31.1751595,80.4643238 31.7234297,80.5307937 C31.8200081,80.5425025 31.9177782,80.5400554 32.01365,80.5235299 Z" id="Path" transform="translate(56.805801, 28.036553) rotate(-271.000000) translate(-56.805801, -28.036553) "></path>
                </g>
            </g>
            <text id="&lt;K&gt;" font-family="PTMono-Bold, PT Mono" font-size="42" font-weight="bold" fill="#FFFFFF">
                <tspan x="18.2254276" y="56.3892717">&lt;K&gt;</tspan>
            </text>
        </g>
    </g>
</svg>